<?xml version="1.0" encoding="utf-8"?>
<!-- Generator: Adobe Illustrator 21.1.0, SVG Export Plug-In . SVG Version: 6.00 Build 0)  -->
<svg version="1.1" xmlns="http://www.w3.org/2000/svg" xmlns:xlink="http://www.w3.org/1999/xlink" x="0px" y="0px"
	 viewBox="0 0 612 792" style="enable-background:new 0 0 612 792;" xml:space="preserve">
<style type="text/css">
	.st0{fill:none;stroke:#000000;stroke-miterlimit:10;}
	.st1{fill:#606161;stroke:#000000;stroke-miterlimit:10;}
	.st2{stroke:#000000;stroke-miterlimit:10;}
	.st3{fill:#C1BDBE;stroke:#000000;stroke-miterlimit:10;}
	.st4{fill:#444243;stroke:#000000;stroke-miterlimit:10;}
	.st5{fill:#605E5F;stroke:#000000;stroke-miterlimit:10;}
	.st6{fill:#3A3A3A;stroke:#000000;stroke-miterlimit:10;}
	.st7{fill:#494646;stroke:#000000;stroke-miterlimit:10;}
	.st8{fill:#6D6D6D;stroke:#000000;stroke-miterlimit:10;}
	.st9{fill:#40403F;stroke:#000000;stroke-miterlimit:10;}
	.st10{fill:#727071;stroke:#000000;stroke-miterlimit:10;}
	.st11{font-family:'Ebrima-Bold';}
	.st12{font-size:60px;}
	.st13{font-size:72px;}
	.st14{font-family:'Ebrima';}
	.st15{font-size:32px;}
	.st16{font-size:25px;}
	.st17{font-size:46px;}
	.st18{font-size:24px;}
	.st19{font-size:30px;}
	.st20{font-size:23px;}
</style>
<g id="spiral">
	<line class="st0" x1="301" y1="626" x2="301.5" y2="626.5"/>
	<polygon class="st1" points="497,0 550.5,53.5 582,0 	"/>
	<polygon class="st2" points="612,0 582,0 536.7,76.7 612,92.3 	"/>
	<polygon class="st3" points="497,0 550.5,53.5 536.7,76.7 495,76.7 458.7,76.7 446,0 	"/>
	<polygon class="st0" points="528.7,130 583.3,86.4 536.7,76.7 495,76.7 	"/>
	<polygon class="st4" points="612,92.3 612,185.7 532.3,226.7 528.7,130 583.3,86.4 	"/>
	<polygon class="st0" points="458.7,76.7 423.5,130 510,189.5 531.1,193.5 528.7,130 495,76.7 	"/>
	<polygon class="st2" points="423.5,130 417.5,219 479.5,219 479.5,211.5 510.5,211.5 512.5,219 532,219 531.1,193.5 510,189.5 	"/>
	<polygon class="st0" points="532.3,226.7 545.5,284.5 612,287 612,185.7 	"/>
	<polygon class="st2" points="458.7,76.7 377.6,86.4 423.5,130 	"/>
	<polygon class="st0" points="446,0 377.6,46.2 377.6,86.4 458.7,76.7 	"/>
	<polygon class="st0" points="545.5,284.5 509.4,318.5 612,338.9 612,287 	"/>
	<polygon class="st0" points="417.5,219 370.5,149.8 423.5,130 	"/>
	<polygon class="st0" points="377.6,86.4 291.7,130 370.5,149.8 423.5,130 	"/>
	<polygon class="st0" points="377.6,46.2 352.8,0 446,0 	"/>
	<polygon class="st5" points="291.7,130 287.3,193.5 370.5,149.8 	"/>
	<polygon class="st5" points="377.6,46.2 267.8,23.1 267.8,0 352.8,0 	"/>
	<polygon class="st2" points="523.7,321.4 555.4,386.7 612,381.4 612,338.9 	"/>
	<polygon class="st2" points="0,135.1 59.9,103.3 0,219 	"/>
	<polygon class="st2" points="0,0 49.1,46.2 99.7,0 	"/>
	<polygon class="st0" points="39.5,114.1 49.1,46.2 0,0 0,135.1 	"/>
	<polygon class="st6" points="40.5,140.8 132.5,118.1 126.2,214.1 0,219 	"/>
	<polygon class="st0" points="74.4,23.1 126.2,43.2 213,0 99.7,0 	"/>
	<polygon class="st2" points="267.8,23.1 148.2,32.3 213,0 267.8,0 	"/>
	<polygon class="st0" points="83.9,215.8 42.2,295.5 0,307.9 0,219 	"/>
	<polygon class="st2" points="0,379.6 99.7,321.4 42.2,295.5 0,307.9 	"/>
	<polygon class="st0" points="572.2,386.7 554.5,488.5 612,523 612,381.4 	"/>
	<polygon class="st0" points="26.6,364 83.9,523 0,541.6 0,379.6 	"/>
	<polygon class="st2" points="560.7,448.8 399.4,464.6 423.5,515.9 612,523 554.5,488.5 	"/>
	<polygon class="st2" points="56.8,529 166.9,541.6 0,620.3 0,541.6 	"/>
	<polygon class="st0" points="495,518.6 612,649.5 612,523 	"/>
	<polygon class="st7" points="66.2,589.1 246.6,653.9 0,649.5 0,620.3 	"/>
	<polygon class="st8" points="423.5,515.9 370.5,562.8 495,518.6 	"/>
	<polygon class="st9" points="612,649.5 495,518.6 423.5,544 458.7,636.2 	"/>
	<polygon class="st0" points="479.5,638.1 612,792 612,649.5 	"/>
	<polygon class="st10" points="143.7,552.5 193.6,634.9 66.2,589.1 	"/>
</g>
<g id="Layer_1">
	<text transform="matrix(1 0 0 1 47.52 89.4141)" class="st11 st12">UPS STORE</text>
	<text transform="matrix(1 0 0 1 49.1133 422.6484)" class="st11 st13">Graphic Design</text>
	<text transform="matrix(-6.123234e-17 1 -1 -6.123234e-17 132.4805 149.76)" class="st14 st15">Business Cards</text>
	<text transform="matrix(1.17 0 0 1 180 180.9209)" class="st14 st16">T-Shirts</text>
	<text transform="matrix(-6.123234e-17 1 -1 -6.123234e-17 479.5107 207.9474)" class="st14 st17">Banners</text>
	<text transform="matrix(1 0 0 1 238.1133 334.2725)" class="st14 st18">Calendars</text>
	<text transform="matrix(1 0 0 1 352.7998 260.6968)" class="st14 st19">Flyers</text>
	<text transform="matrix(0.7461 0.6659 -0.6659 0.7461 178.6288 448.8359)" class="st14 st18">1507 E Valley Pkwy Ste 3 Escondido, CA 92027</text>
	<text transform="matrix(1 0 0 1 148.1514 759.7842)" class="st14 st20">Store5590@theupsstore.com</text>
	<text transform="matrix(1 0 0 1 26.6401 673.7441)"><tspan x="0" y="0" class="st14 st20">(760)</tspan><tspan x="51.1" y="0" class="st14 st20"> </tspan><tspan x="57.2" y="0" class="st14 st20">738-8550</tspan><tspan x="153.2" y="0" class="st14 st20"> </tspan><tspan x="159.3" y="0" class="st14 st20">:</tspan><tspan x="164.3" y="0" class="st14 st20"> </tspan><tspan x="170.4" y="0" class="st14 st20">Phone </tspan></text>
	<text transform="matrix(1 0 0 1 108.7202 716.7646)" class="st14 st20">(760) 738-8510 : Fax</text>
</g>
</svg>
